<?xml version="1.0" encoding="UTF-8"?>

<svg version="1.1" viewBox="0 0 2000 2000" width="500" height="500" xmlns="http://www.w3.org/2000/svg">

<path transform="translate(615,472)" d="m0 0h68l19 1 28 5 25 5 34 10 29 11 20 8 36 17 8 5 14 6 18 11 18 10 13 8 17 11 22 14 2 2 4-1 36-22 34-18 32-16 16-7 12-6 31-12 24-9 30-10 21-6 25-6 6-2 25-4 24-4 14-1h65l17 1 37 9 25 9 16 7 14 8 17 12 11 9 13 12 7 8 11 14 11 19 6 13 8 25 7 33 1 15v26l-3 24-5 30-5 15-4 16-9 24-7 19-21 42-12 22-14 22-8 13-11 17-8 11-9 13 1 7 10 12 10 15 10 16 11 18 14 25 11 20 12 27 8 21 13 38 5 22 3 8 5 38 2 10 1 18v32l-2 18-5 30-4 13-6 20-9 19-8 16-16 25-9 11-7 7-7 8-12 11-11 9-9 7-13 9-14 8-22 10-42 13-20 3-19 3-11 1h-35l-22-2-35-5-34-7-35-9-8-4-21-6-7-3-9-2-17-8-19-7-25-11-27-13-28-13-22-12-2-2-5 1-16 8-17 9-19 10-16 8-18 8-10 4-4 3-25 8-20 8-25 7-33 10-26 6-22 4-9 3-15 1-46 5-14 1h-54l-21-2-16-2-21-3-29-9-24-11-11-7-11-9-10-9-7-6-13-17-11-20-6-16-2-5-4-33v-25l3-21 1-17 3-7 6-25 9-26 13-31 12-26 5-12 12-22 4-10 10-17 12-23 10-17 11-18 7-11 3-4-1-6-10-16-12-19-8-14-8-13-11-23-9-17-7-16-7-15-9-21-4-8-4-12-4-10-8-24-5-20-8-33-2-5-2-29-2-23v-52l3-24 1-13 8-28 9-22 15-28 16-21 8-10 11-12 13-12 16-12 17-10 16-8 24-10 28-7zm37 69-26 2-19 3-24 8-16 7-16 10-10 8-10 9-7 7-10 13-8 14-9 20-6 20-4 27-1 13v40l3 32 5 27 6 27 9 29 5 15 13 30 11 23 21 42 12 20 7 10h4l7-9 7-11 10-14 13-18 9-12 10-12 7-9 8-10 9-11 10-13 10-11 8-10 13-14 7-8 11-13 11-11 7-8 16-17 14-14 6-5 6-7 8-7 5-5 14-12 11-10 8-7 13-12 15-13 14-11 13-11 18-14 15-11 7-5v-3l-14-10-28-15-13-8-23-11-5-4-19-7-10-6-7-4-10-3-7-4-13-4-13-5-25-7-13-2-7-3-18-3-30-2zm686 1-35 3-32 6-36 9-36 12-24 9-11 4-13 5-9 4-10 5-17 7-31 15-16 9-15 6v3l11 8 11 7 13 10 16 10 14 8 14 10 18 11 21 14 17 11 18 11 15 10 23 14 33 22 15 9 10 8 14 11 16 12 14 11 10 9 11 9 10 9 10 8 4 4 1 5-3 8-8 11-11 14-10 16-5 7-6-1-28-28-8-7-10-9-14-11-7-7-10-7-14-8-16-7-11-3h-27l-16 5-16 8-17 12-13 13-11 14-11 12-7 9-9 11-12 14-9 11-9 9-9 11-11 13-9 11-11 13-10 11-18 22-12 14-13 15-11 13-13 16-8 9-9 12-11 13-8 10-18 20-17 17-14 11-14 10-8 5-23 10-12 3v3l10 8 16 10 14 10 20 12 15 10 14 9 21 14 22 14 17 10 12 9 10 6h5l12-9 13-10 13-9 14-10 13-11 13-10 12-10 11-9 13-10 10-9 15-12v-2l4-2 7-7 8-7 7-7 11-9 8-8 8-7 28-28 8-7 16-16 7-8 20-20 7-8 6-7 14-14 7-8 10-11 8-10 11-12 9-11 11-13 10-13 9-10 14-19 14-18 10-14 12-16 19-29 7-11 10-17 10-15 13-24 7-14 12-26 8-23 7-26 5-27v-53l-3-17-4-15-5-12-7-11-9-10-15-14-21-14-14-6-10-4-13-2-10-4-14-2-14-1zm-352 141-11 7-14 10-15 12-17 12-17 14-13 11-11 10-11 9-10 9-8 7-7 7-8 7-11 11-8 7-24 24-7 8-21 21-7 8-9 10-7 8-11 12-9 11-12 14-11 13-10 13-7 9-8 10-8 11-26 36-12 17-8 12-13 18-10 16-11 17-14 24-13 22-10 18-13 24-10 19-9 17-9 21-5 11-11 30-8 27-7 36-1 11 2 16 4 17 9 19 12 14 13 9 13 6 23 6 21 4 17 2h53l27-2 35-5 16-2 28-6 16-4 21-6 23-7 17-7 16-6 20-8 12-5 13-6 19-9 4-4-6-5-18-12-19-11-11-6-9-7-18-12-19-11-17-12-24-15-12-8-17-12-21-14-21-16-16-10-16-12-14-11-15-13-11-11-6-5-7-8-8-9h-2l-2-4 1-6 5-10 10-15 12-19 7-11h3l9 9 7 8 11 13 11 11 14 11 9 6 19 9 14 4 13 2h15l14-3 13-4 19-9 13-9 11-9 11-10 5-5 9-10 9-11 11-13 7-9 27-33 7-8 12-13 16-20 8-9 7-9 9-9 7-8 11-14 11-12 9-12 7-7 10-13 9-10 11-14 12-13 11-14 9-10 12-14 13-13 19-13 16-10 11-6-2-4-11-8-22-13-18-11-14-10-16-10-20-12-15-11-14-8-17-12-14-10zm437 341-8 7-12 16-8 11-10 11-9 11-10 11-7 8-4 4v2h-2l-9 11-12 13-7 8-8 8-7 8-7 7-7 8-49 49-2 1v2l-4 2-20 20-8 7-12 11-8 7-10 9-8 7-10 9-8 7-10 9-17 13-14 11-10 8-19 14-11 8-17 13-1 3 9 5 22 10 31 13 8 4 17 6 18 8 31 10 31 9 31 7 32 5 30 2h19l19-2 29-6 18-6 25-12 18-12 10-9 8-7 9-9 8-11 12-19 11-28 4-14 2-12 2-10v-65l-2-14-5-24-8-30-10-30-11-25-8-16-12-23-9-14-10-19-11-16z" fill="#FEFEFE"/>

</svg>

